<svg xmlns="http://www.w3.org/2000/svg" width="14.527" height="14.879" viewBox="0 0 14.527 14.879">
  <path id="icons8-google_g" d="M9.984,9.551h0a1.42,1.42,0,0,0,1.42,1.42h2.631a4.024,4.024,0,0,1-3.169,2.876A4.581,4.581,0,0,1,5.517,9.876a4.486,4.486,0,0,1,6.533-4.42,1.456,1.456,0,0,0,1.7-.274h0a1.482,1.482,0,0,0-.37-2.365,7.441,7.441,0,1,0-3.4,14.061c4.737,0,6.675-3.359,7.067-6.248a2.222,2.222,0,0,0-2.215-2.5l-3.43,0A1.419,1.419,0,0,0,9.984,9.551Z" transform="translate(-2.544 -1.999)" fill="#167a8b"/>
</svg>
