<svg xmlns="http://www.w3.org/2000/svg" width="14.592" height="12.378" viewBox="0 0 14.592 12.378">
  <g id="team" transform="translate(0 -38.84)">
    <g id="Group_98" data-name="Group 98" transform="translate(11.357 45.522)">
      <g id="Group_97" data-name="Group 97">
        <path id="Path_234" data-name="Path 234" d="M399.622,273.32h-1.128a2.935,2.935,0,0,1,.178,1.009v4.265a1.259,1.259,0,0,1-.072.421h1.866a1.265,1.265,0,0,0,1.264-1.264v-2.325A2.109,2.109,0,0,0,399.622,273.32Z" transform="translate(-398.494 -273.32)" fill="#fff"/>
      </g>
    </g>
    <g id="Group_100" data-name="Group 100" transform="translate(0 45.523)">
      <g id="Group_99" data-name="Group 99">
        <path id="Path_235" data-name="Path 235" d="M3.057,274.33a2.935,2.935,0,0,1,.178-1.009H2.106A2.109,2.109,0,0,0,0,275.427v2.325a1.265,1.265,0,0,0,1.264,1.264H3.129a1.258,1.258,0,0,1-.072-.421Z" transform="translate(0 -273.321)" fill="#fff"/>
      </g>
    </g>
    <g id="Group_102" data-name="Group 102" transform="translate(3.9 44.425)">
      <g id="Group_101" data-name="Group 101">
        <path id="Path_236" data-name="Path 236" d="M141.515,234.815h-2.58a2.109,2.109,0,0,0-2.106,2.106v4.265a.421.421,0,0,0,.421.421h5.95a.421.421,0,0,0,.421-.421v-4.265A2.109,2.109,0,0,0,141.515,234.815Z" transform="translate(-136.829 -234.815)" fill="#fff"/>
      </g>
    </g>
    <g id="Group_104" data-name="Group 104" transform="translate(4.763 38.84)">
      <g id="Group_103" data-name="Group 103" transform="translate(0 0)">
        <path id="Path_237" data-name="Path 237" d="M169.647,38.84a2.533,2.533,0,1,0,2.533,2.533A2.536,2.536,0,0,0,169.647,38.84Z" transform="translate(-167.114 -38.84)" fill="#fff"/>
      </g>
    </g>
    <g id="Group_106" data-name="Group 106" transform="translate(0.953 41.201)">
      <g id="Group_105" data-name="Group 105" transform="translate(0 0)">
        <path id="Path_238" data-name="Path 238" d="M35.337,121.689a1.894,1.894,0,1,0,1.894,1.894A1.9,1.9,0,0,0,35.337,121.689Z" transform="translate(-33.443 -121.689)" fill="#fff"/>
      </g>
    </g>
    <g id="Group_108" data-name="Group 108" transform="translate(9.85 41.201)">
      <g id="Group_107" data-name="Group 107" transform="translate(0 0)">
        <path id="Path_239" data-name="Path 239" d="M347.5,121.689a1.894,1.894,0,1,0,1.894,1.894A1.9,1.9,0,0,0,347.5,121.689Z" transform="translate(-345.607 -121.689)" fill="#fff"/>
      </g>
    </g>
  </g>
</svg>
