<svg id="Group_37" data-name="Group 37" xmlns="http://www.w3.org/2000/svg" width="8" height="8" viewBox="0 0 8 8">
  <path id="Path_156" data-name="Path 156" d="M6.828,1.172A4,4,0,0,0,1.172,6.828,4,4,0,0,0,6.828,1.172ZM4.251,5.741H4.234v.519a.234.234,0,0,1-.469,0V5.741H3.247a.234.234,0,0,1,0-.469h1a.519.519,0,0,0,0-1.038h-.5a.987.987,0,0,1,0-1.975h.017V1.741a.234.234,0,0,1,.469,0v.519h.519a.234.234,0,1,1,0,.469h-1a.519.519,0,0,0,0,1.037h.5a.988.988,0,0,1,0,1.975Z" transform="translate(0 0)" fill="rgba(0,129,71,0.6)"/>
</svg>
