<svg id="find" xmlns="http://www.w3.org/2000/svg" width="89.592" height="89.593" viewBox="0 0 89.592 89.593">
  <path id="Path_265" data-name="Path 265" d="M148.437,313.531l-1.856-1.856-6.9,6.9,1.856,1.856,1.856,1.856,6.9-6.9Z" transform="translate(-115.239 -257.136)" fill="#dfe7f4"/>
  <path id="Path_266" data-name="Path 266" d="M0,0H9.759V2.624H0Z" transform="translate(26.289 63.291) rotate(-45)" fill="#c7cfe1"/>
  <path id="Path_267" data-name="Path 267" d="M180.25,9.994a34.122,34.122,0,1,0,9.994,24.128A34.015,34.015,0,0,0,180.25,9.994Z" transform="translate(-100.652)" fill="#384949"/>
  <path id="Path_268" data-name="Path 268" d="M179.114,105.37A34.122,34.122,0,0,0,227.37,57.114Z" transform="translate(-147.772 -47.12)" fill="#293939"/>
  <path id="Path_269" data-name="Path 269" d="M201.279,38.466a28.859,28.859,0,1,0,8.466,20.406,28.783,28.783,0,0,0-8.466-20.406Z" transform="translate(-125.402 -24.75)" fill="#f0f7ff"/>
  <path id="Path_270" data-name="Path 270" d="M249.661,98.788a28.783,28.783,0,0,0-8.466-20.406l-40.813,40.813a28.859,28.859,0,0,0,49.279-20.406Z" transform="translate(-165.318 -64.666)" fill="#dfe7f4"/>
  <path id="Path_271" data-name="Path 271" d="M28.155,340.261v0a7.893,7.893,0,0,0-11.137,0L0,357.281l5.567,5.567,5.568,5.568L28.156,351.4a7.893,7.893,0,0,0,0-11.138Z" transform="translate(0 -278.823)" fill="#ff641a"/>
  <path id="Path_272" data-name="Path 272" d="M54.4,351.1,31.816,373.69l5.568,5.567L54.4,362.241A7.893,7.893,0,0,0,54.4,351.1Z" transform="translate(-26.249 -289.665)" fill="#f03800"/>
  <path id="Path_273" data-name="Path 273" d="M232.757,180.241a18.061,18.061,0,0,0-2.384-.241A18.4,18.4,0,0,0,212,198.373V201h36.747v-2.625A18.341,18.341,0,0,0,232.757,180.241Z" transform="translate(-174.903 -148.503)" fill="#97de3d"/>
  <path id="Path_274" data-name="Path 274" d="M248.747,199.51a18.341,18.341,0,0,0-15.99-18.133L212,202.134h36.747Z" transform="translate(-174.903 -149.639)" fill="#59c36a"/>
  <path id="Path_275" data-name="Path 275" d="M267.5,81A10.5,10.5,0,1,1,278,70.5,10.509,10.509,0,0,1,267.5,81Z" transform="translate(-212.029 -49.501)" fill="#fdc"/>
</svg>
