<svg xmlns="http://www.w3.org/2000/svg" width="37.682" height="31.965" viewBox="0 0 37.682 31.965">
  <g id="team" transform="translate(0 -38.84)">
    <g id="Group_98" data-name="Group 98" transform="translate(29.329 56.097)">
      <g id="Group_97" data-name="Group 97">
        <path id="Path_234" data-name="Path 234" d="M401.408,273.32h-2.914a7.581,7.581,0,0,1,.459,2.606V286.94a3.252,3.252,0,0,1-.187,1.088h4.818a3.268,3.268,0,0,0,3.264-3.264v-6A5.446,5.446,0,0,0,401.408,273.32Z" transform="translate(-398.494 -273.32)" fill="rgba(54,67,74,0.7)"/>
      </g>
    </g>
    <g id="Group_100" data-name="Group 100" transform="translate(0 56.097)">
      <g id="Group_99" data-name="Group 99">
        <path id="Path_235" data-name="Path 235" d="M7.895,275.927a7.58,7.58,0,0,1,.459-2.606H5.44A5.446,5.446,0,0,0,0,278.761v6a3.268,3.268,0,0,0,3.264,3.264H8.082a3.249,3.249,0,0,1-.187-1.088Z" transform="translate(0 -273.321)" fill="rgba(54,67,74,0.7)"/>
      </g>
    </g>
    <g id="Group_102" data-name="Group 102" transform="translate(10.07 53.263)">
      <g id="Group_101" data-name="Group 101">
        <path id="Path_236" data-name="Path 236" d="M148.931,234.815h-6.662a5.446,5.446,0,0,0-5.44,5.44v11.014a1.088,1.088,0,0,0,1.088,1.088h15.366a1.088,1.088,0,0,0,1.088-1.088V240.255A5.446,5.446,0,0,0,148.931,234.815Z" transform="translate(-136.829 -234.815)" fill="rgba(54,67,74,0.7)"/>
      </g>
    </g>
    <g id="Group_104" data-name="Group 104" transform="translate(12.299 38.84)">
      <g id="Group_103" data-name="Group 103" transform="translate(0 0)">
        <path id="Path_237" data-name="Path 237" d="M173.656,38.84a6.541,6.541,0,1,0,6.542,6.542A6.549,6.549,0,0,0,173.656,38.84Z" transform="translate(-167.114 -38.84)" fill="rgba(54,67,74,0.7)"/>
      </g>
    </g>
    <g id="Group_106" data-name="Group 106" transform="translate(2.461 44.938)">
      <g id="Group_105" data-name="Group 105" transform="translate(0 0)">
        <path id="Path_238" data-name="Path 238" d="M38.335,121.689a4.89,4.89,0,1,0,4.892,4.892A4.9,4.9,0,0,0,38.335,121.689Z" transform="translate(-33.443 -121.689)" fill="rgba(54,67,74,0.7)"/>
      </g>
    </g>
    <g id="Group_108" data-name="Group 108" transform="translate(25.436 44.938)">
      <g id="Group_107" data-name="Group 107" transform="translate(0 0)">
        <path id="Path_239" data-name="Path 239" d="M350.5,121.689a4.892,4.892,0,1,0,4.892,4.892A4.9,4.9,0,0,0,350.5,121.689Z" transform="translate(-345.607 -121.689)" fill="rgba(54,67,74,0.7)"/>
      </g>
    </g>
  </g>
</svg>
