<svg xmlns="http://www.w3.org/2000/svg" width="14.572" height="14.572" viewBox="0 0 14.572 14.572">
  <g id="edit" transform="translate(0 -0.004)">
    <g id="Group_118" data-name="Group 118" transform="translate(0 1.045)">
      <g id="Group_117" data-name="Group 117">
        <path id="Path_240" data-name="Path 240" d="M11.97,40.382a.52.52,0,0,0-.52.52v5.2a.52.52,0,0,1-.52.52H1.561a.52.52,0,0,1-.52-.52V35.7a.52.52,0,0,1,.52-.52H7.806a.52.52,0,1,0,0-1.041H1.561A1.561,1.561,0,0,0,0,35.7V46.107a1.561,1.561,0,0,0,1.561,1.561h9.368a1.561,1.561,0,0,0,1.561-1.561V40.9A.52.52,0,0,0,11.97,40.382Z" transform="translate(0 -34.137)" fill="#fff"/>
      </g>
    </g>
    <g id="Group_120" data-name="Group 120" transform="translate(3.123 0.004)">
      <g id="Group_119" data-name="Group 119" transform="translate(0 0)">
        <path id="Path_241" data-name="Path 241" d="M113.274.587a1.992,1.992,0,0,0-2.818,0L103.6,7.442a.526.526,0,0,0-.125.2l-1.041,3.123a.52.52,0,0,0,.493.685.529.529,0,0,0,.164-.027l3.123-1.041a.521.521,0,0,0,.2-.126L113.274,3.4A1.992,1.992,0,0,0,113.274.587Zm-.736,2.082-6.765,6.765-2.021.675.673-2.019,6.768-6.765a.951.951,0,1,1,1.346,1.344Z" transform="translate(-102.409 -0.004)" fill="#fff"/>
      </g>
    </g>
  </g>
</svg>
