<svg xmlns="http://www.w3.org/2000/svg" width="11.189" height="11.167" viewBox="0 0 11.189 11.167">
  <g id="internet" transform="translate(0 -0.316)">
    <path id="Path_246" data-name="Path 246" d="M231.816,346.492c.856-.122,1.606-1.015,2.078-2.333a10.157,10.157,0,0,0-2.078-.245Zm0,0" transform="translate(-226.021 -335.009)" fill="#fff"/>
    <path id="Path_247" data-name="Path 247" d="M279.671,359.639c.051-.015.1-.029.151-.046l.125-.043.147-.053.124-.049.142-.06.123-.056.138-.067.12-.063.134-.074.118-.069.129-.08.114-.075c.042-.028.084-.058.125-.088l.111-.08.121-.095.106-.086c.04-.033.078-.068.117-.1s.068-.06.1-.091.075-.073.113-.109.065-.063.1-.1l.017-.019a6.719,6.719,0,0,0-1.37-.527,4.962,4.962,0,0,1-1.278,2.075l.049-.012Zm0,0" transform="translate(-272.51 -348.366)" fill="#fff"/>
    <path id="Path_248" data-name="Path 248" d="M338.36,231.684h-2.4a10.369,10.369,0,0,1-.4,2.767,6.957,6.957,0,0,1,1.518.6,5.587,5.587,0,0,0,1.284-3.371Zm0,0" transform="translate(-327.171 -225.584)" fill="#fff"/>
    <path id="Path_249" data-name="Path 249" d="M231.816,111.61h2.6a10,10,0,0,0-.394-2.668,10.532,10.532,0,0,1-2.2.263Zm0,0" transform="translate(-226.021 -105.91)" fill="#fff"/>
    <path id="Path_250" data-name="Path 250" d="M231.816.316V2.894a10.164,10.164,0,0,0,2.078-.245c-.472-1.319-1.222-2.212-2.078-2.333Zm0,0" transform="translate(-226.021 0)" fill="#fff"/>
    <path id="Path_251" data-name="Path 251" d="M231.816,234.089a10.539,10.539,0,0,1,2.2.263,10.006,10.006,0,0,0,.394-2.668h-2.6Zm0,0" transform="translate(-226.021 -225.584)" fill="#fff"/>
    <path id="Path_252" data-name="Path 252" d="M337.076,80.844a6.954,6.954,0,0,1-1.518.6,10.37,10.37,0,0,1,.4,2.767h2.4a5.589,5.589,0,0,0-1.284-3.371Zm0,0" transform="translate(-327.17 -78.515)" fill="#fff"/>
    <path id="Path_253" data-name="Path 253" d="M282.107,8.344l-.017-.019c-.032-.033-.064-.064-.1-.1s-.074-.074-.112-.109-.067-.06-.1-.091-.078-.069-.117-.1-.07-.057-.105-.085-.081-.065-.122-.1l-.11-.08c-.042-.03-.084-.06-.126-.089l-.113-.074c-.043-.028-.086-.055-.13-.081l-.117-.068L280.7,7.28l-.12-.062c-.046-.023-.092-.046-.14-.068l-.122-.056c-.047-.021-.1-.04-.143-.06l-.124-.049c-.049-.019-.1-.036-.147-.053l-.125-.043c-.05-.016-.1-.031-.151-.046l-.125-.036-.049-.012a4.962,4.962,0,0,1,1.278,2.075,6.712,6.712,0,0,0,1.372-.528Zm0,0" transform="translate(-272.472 -6.318)" fill="#fff"/>
    <path id="Path_254" data-name="Path 254" d="M0,84.214H2.4a10.375,10.375,0,0,1,.4-2.767,6.946,6.946,0,0,1-1.518-.6A5.587,5.587,0,0,0,0,84.214Zm0,0" transform="translate(0 -78.515)" fill="#fff"/>
    <path id="Path_255" data-name="Path 255" d="M134.773,346.492v-2.578a10.166,10.166,0,0,0-2.078.245C133.167,345.477,133.917,346.371,134.773,346.492Zm0,0" transform="translate(-129.378 -335.009)" fill="#fff"/>
    <path id="Path_256" data-name="Path 256" d="M114.518,231.684h-2.6a10,10,0,0,0,.394,2.668,10.528,10.528,0,0,1,2.2-.263Zm0,0" transform="translate(-109.123 -225.584)" fill="#fff"/>
    <path id="Path_257" data-name="Path 257" d="M134.773.316c-.856.122-1.606,1.015-2.078,2.333a10.15,10.15,0,0,0,2.078.245Zm0,0" transform="translate(-129.378 0)" fill="#fff"/>
    <path id="Path_258" data-name="Path 258" d="M114.518,109.2a10.533,10.533,0,0,1-2.2-.263,10,10,0,0,0-.394,2.668h2.6Zm0,0" transform="translate(-109.124 -105.91)" fill="#fff"/>
    <path id="Path_259" data-name="Path 259" d="M64.839,6.789,64.79,6.8l-.126.036-.15.045-.126.043-.146.053-.124.05-.142.06-.123.056-.138.067-.12.063-.133.074-.118.069-.129.08-.114.075c-.042.028-.084.058-.125.088l-.111.08c-.041.031-.08.063-.121.095s-.071.057-.106.086-.078.067-.117.1-.069.06-.1.092-.075.072-.112.109-.065.063-.1.1l-.017.019a6.714,6.714,0,0,0,1.37.527,4.96,4.96,0,0,1,1.277-2.074Zm0,0" transform="translate(-60.637 -6.311)" fill="#fff"/>
    <path id="Path_260" data-name="Path 260" d="M62.343,358.2c.037.037.074.074.112.109s.067.06.1.091.078.069.117.1.07.057.105.085.08.065.122.1l.109.08c.042.03.084.06.127.089l.113.074c.043.028.086.055.13.081l.117.068.135.074.12.062c.046.023.092.046.14.068l.122.056c.047.021.1.04.143.06l.124.049c.049.019.1.036.147.053l.125.043c.05.016.1.031.151.046l.125.036.049.012a4.963,4.963,0,0,1-1.278-2.075,6.714,6.714,0,0,0-1.37.528l.017.019C62.278,358.141,62.31,358.172,62.343,358.2Zm0,0" transform="translate(-60.675 -348.316)" fill="#fff"/>
    <path id="Path_261" data-name="Path 261" d="M1.284,235.053a6.956,6.956,0,0,1,1.518-.6,10.374,10.374,0,0,1-.4-2.767H0A5.588,5.588,0,0,0,1.284,235.053Zm0,0" transform="translate(0 -225.583)" fill="#fff"/>
  </g>
</svg>
