<?xml version="1.0" encoding="iso-8859-1"?>
<!-- Generator: Adobe Illustrator 19.0.0, SVG Export Plug-In . SVG Version: 6.00 Build 0)  -->
<svg version="1.1" id="Capa_1" xmlns="http://www.w3.org/2000/svg" xmlns:xlink="http://www.w3.org/1999/xlink" x="0px" y="0px"
	 viewBox="0 0 512 512" style="enable-background:new 0 0 512 512;" xml:space="preserve">
<g>
	<g>
		
			<rect x="35.285" y="261.334" transform="matrix(0.7071 -0.7071 0.7071 0.7071 -153.2795 173.9521)" width="196.108" height="21.333"/>
	</g>
</g>
<g>
	<g>
		
			<rect x="368.001" y="173.949" transform="matrix(0.7071 -0.7071 0.7071 0.7071 -81.426 347.4251)" width="21.333" height="196.108"/>
	</g>
</g>
<g>
	<g>
		<path d="M484.149,55.552L256,231.851L27.851,55.552L14.816,72.448l234.667,181.333c1.865,1.444,4.159,2.225,6.517,2.219
			c2.359,0.006,4.652-0.775,6.517-2.219L497.184,72.448L484.149,55.552z"/>
	</g>
</g>
<g>
	<g>
		<path d="M480,42.667H32c-17.673,0-32,14.327-32,32v298.667c0,17.673,14.327,32,32,32h149.333v53.333
			c-0.001,4.314,2.596,8.204,6.581,9.856c1.294,0.54,2.683,0.815,4.085,0.811c2.829-0.001,5.541-1.125,7.541-3.125l60.875-60.875
			H480c17.673,0,32-14.327,32-32V74.667C512,56.993,497.673,42.667,480,42.667z M490.667,373.333
			c0,5.891-4.776,10.667-10.667,10.667H256c-2.829,0.001-5.541,1.125-7.541,3.125l-45.792,45.792v-38.251
			c0-5.891-4.776-10.667-10.667-10.667H32c-5.891,0-10.667-4.776-10.667-10.667V74.667C21.333,68.776,26.109,64,32,64h448
			c5.891,0,10.667,4.776,10.667,10.667V373.333z"/>
	</g>
</g>
<g>
</g>
<g>
</g>
<g>
</g>
<g>
</g>
<g>
</g>
<g>
</g>
<g>
</g>
<g>
</g>
<g>
</g>
<g>
</g>
<g>
</g>
<g>
</g>
<g>
</g>
<g>
</g>
<g>
</g>
</svg>
