<svg xmlns="http://www.w3.org/2000/svg" width="48.049" height="48.053" viewBox="0 0 48.049 48.053">
  <g id="global" transform="translate(-0.016 0.002)">
    <g id="Group_124" data-name="Group 124" transform="translate(0.016 -0.002)">
      <path id="Path_262" data-name="Path 262" d="M43.625,10.156a.4.4,0,0,0-.005-.046c-.06-.086-.134-.16-.2-.244Q42.751,8.949,42,8.1c-.137-.155-.275-.307-.415-.458q-.774-.829-1.624-1.581c-.1-.093-.2-.189-.307-.28A24.06,24.06,0,0,0,35.1,2.706c-.065-.034-.134-.063-.2-.1a23.873,23.873,0,0,0-2.232-.994c-.172-.062-.328-.12-.491-.172q-1.015-.366-2.06-.64C29.907.747,29.7.69,29.492.642,28.8.482,28.118.361,27.416.261c-.213-.031-.422-.072-.637-.1a22.568,22.568,0,0,0-5.445,0c-.215.026-.424.067-.637.1-.7.1-1.4.221-2.075.381-.209.048-.415.1-.621.16q-1.052.275-2.06.64c-.172.058-.328.117-.491.172a23.859,23.859,0,0,0-2.232.994c-.067.034-.136.063-.2.1A24.066,24.066,0,0,0,8.445,5.782c-.1.091-.2.187-.307.28A22.328,22.328,0,0,0,6.514,7.643c-.141.151-.278.3-.415.458q-.754.846-1.425,1.765c-.062.084-.136.158-.2.244a.39.39,0,0,0-.021.046,23.877,23.877,0,0,0,0,27.738.374.374,0,0,0,.021.046c.06.086.134.16.2.244q.671.917,1.425,1.765c.137.154.275.307.415.458q.776.829,1.624,1.581c.1.093.2.189.307.28A24.06,24.06,0,0,0,13,45.344c.065.034.134.063.2.1a23.873,23.873,0,0,0,2.232.994c.172.062.328.12.491.172q1.015.366,2.06.64c.206.055.412.112.621.16.687.16,1.373.282,2.075.381.213.031.422.072.637.1a22.569,22.569,0,0,0,5.445,0c.215-.026.424-.067.637-.1.7-.1,1.4-.221,2.075-.381.209-.048.415-.1.621-.16q1.054-.275,2.06-.64c.172-.058.328-.117.491-.172a23.859,23.859,0,0,0,2.232-.994c.067-.034.136-.063.2-.1a24.064,24.064,0,0,0,4.556-3.076c.1-.091.2-.187.307-.28a21.855,21.855,0,0,0,1.624-1.581c.141-.151.278-.3.415-.458q.754-.848,1.425-1.765c.062-.084.136-.158.2-.244a.389.389,0,0,0,.021-.046A23.877,23.877,0,0,0,43.625,10.156ZM41.666,13.4a20.426,20.426,0,0,1,2.9,8.9H34.279a32.034,32.034,0,0,0-.961-6.058A30.848,30.848,0,0,0,41.666,13.4ZM28.417,3.9c.1.022.189.053.285.076a18.474,18.474,0,0,1,1.82.515c.091.031.18.067.27.1q.886.309,1.742.687c.1.046.2.1.3.144q.819.39,1.6.843l.343.208q.742.453,1.442.97c.12.088.24.172.359.268a15.663,15.663,0,0,1,1.315,1.1c.11.1.223.2.331.3.439.417.858.858,1.263,1.315.051.06.106.115.158.172a28.8,28.8,0,0,1-7.322,2.352A43.65,43.65,0,0,0,27.7,3.78C27.938,3.823,28.182,3.847,28.417,3.9ZM17.245,22.308a28.643,28.643,0,0,1,.944-5.493,49.191,49.191,0,0,0,5.861.343,49.3,49.3,0,0,0,5.866-.352,28.59,28.59,0,0,1,.939,5.5Zm13.61,3.433a28.643,28.643,0,0,1-.944,5.493,50.242,50.242,0,0,0-11.727,0,28.6,28.6,0,0,1-.939-5.493Zm-6.8-21.2a41.462,41.462,0,0,1,4.784,8.927,45.435,45.435,0,0,1-4.784.254,45.779,45.779,0,0,1-4.779-.256A41.789,41.789,0,0,1,24.05,4.544ZM8.617,10.425c.4-.457.824-.9,1.263-1.315.108-.1.221-.2.331-.3q.635-.578,1.315-1.1c.118-.091.239-.172.359-.268q.7-.515,1.442-.97l.343-.208q.781-.457,1.6-.843c.1-.046.2-.1.3-.144q.855-.386,1.742-.687c.089-.033.172-.069.269-.1.6-.2,1.2-.364,1.82-.515.1-.022.189-.053.287-.074.235-.051.479-.076.718-.118a43.653,43.653,0,0,0-4.623,9.172A28.794,28.794,0,0,1,8.459,10.6C8.511,10.54,8.566,10.486,8.617,10.425ZM6.433,13.4A30.842,30.842,0,0,0,14.78,16.25a32.033,32.033,0,0,0-.96,6.058H3.537A20.429,20.429,0,0,1,6.433,13.4Zm0,21.242a20.426,20.426,0,0,1-2.9-8.9H13.82a32.033,32.033,0,0,0,.961,6.058A30.841,30.841,0,0,0,6.433,34.646Zm13.249,9.505c-.1-.022-.189-.053-.285-.076a18.473,18.473,0,0,1-1.82-.515c-.091-.031-.18-.067-.27-.1q-.886-.309-1.742-.687c-.1-.046-.2-.1-.3-.144q-.819-.39-1.6-.843l-.343-.208q-.742-.453-1.442-.97c-.12-.088-.24-.172-.359-.268a15.663,15.663,0,0,1-1.315-1.1c-.11-.1-.223-.2-.331-.3-.439-.417-.858-.858-1.263-1.315-.051-.06-.106-.115-.158-.172A28.8,28.8,0,0,1,15.779,35.1a43.65,43.65,0,0,0,4.621,9.17C20.162,44.227,19.918,44.2,19.683,44.151Zm4.367-.645a41.462,41.462,0,0,1-4.784-8.927,44.69,44.69,0,0,1,9.565,0l0,0A41.779,41.779,0,0,1,24.05,43.506Zm15.433-5.881c-.4.457-.824.9-1.263,1.315-.108.1-.221.2-.331.3q-.635.58-1.315,1.1c-.118.091-.239.18-.359.268q-.7.515-1.442.97l-.343.208q-.779.455-1.6.843c-.1.046-.2.1-.3.144q-.855.386-1.742.687c-.089.033-.172.069-.269.1-.6.2-1.2.364-1.82.515-.1.022-.189.053-.287.074-.235.052-.479.076-.718.118a43.646,43.646,0,0,0,4.621-9.17,28.794,28.794,0,0,1,7.322,2.352C39.589,37.509,39.534,37.564,39.483,37.624Zm2.184-2.978A30.843,30.843,0,0,0,33.32,31.8a32.033,32.033,0,0,0,.96-6.058H44.562A20.43,20.43,0,0,1,41.666,34.646Z" transform="translate(-0.016 0.002)"/>
    </g>
  </g>
</svg>
