<svg xmlns="http://www.w3.org/2000/svg" width="47.74" height="47.739" viewBox="0 0 47.74 47.739">
  <g id="logout" transform="translate(0 -0.004)">
    <path id="Path_263" data-name="Path 263" d="M29.837,25.862a1.989,1.989,0,0,0-1.989,1.989v7.957A1.991,1.991,0,0,1,25.859,37.8H19.891V7.96a4.009,4.009,0,0,0-2.709-3.781l-.589-.2h9.265a1.991,1.991,0,0,1,1.989,1.989v5.967a1.989,1.989,0,0,0,3.978,0V5.971A5.975,5.975,0,0,0,25.859,0H4.476a1.562,1.562,0,0,0-.213.044C4.167.04,4.076,0,3.978,0A3.982,3.982,0,0,0,0,3.982v35.8a4.009,4.009,0,0,0,2.709,3.781l11.971,3.99a4.118,4.118,0,0,0,1.233.185,3.982,3.982,0,0,0,3.978-3.978V41.776h5.967a5.975,5.975,0,0,0,5.967-5.967V27.851a1.989,1.989,0,0,0-1.989-1.989Zm0,0" transform="translate(0 0)"/>
    <path id="Path_264" data-name="Path 264" d="M298.63,115.205l-7.957-7.956a1.988,1.988,0,0,0-3.4,1.406v5.967h-7.956a1.989,1.989,0,1,0,0,3.978h7.956v5.967a1.989,1.989,0,0,0,3.4,1.407l7.957-7.957A1.987,1.987,0,0,0,298.63,115.205Zm0,0" transform="translate(-251.474 -96.717)"/>
  </g>
</svg>
