<svg xmlns="http://www.w3.org/2000/svg" width="19.776" height="19.778" viewBox="0 0 19.776 19.778">
  <path id="home-run" d="M19.245,8.6h0L11.176.533A1.82,1.82,0,0,0,8.6.533L.537,8.6.529,8.6a1.82,1.82,0,0,0,1.212,3.1l.056,0h.322v5.937a2.133,2.133,0,0,0,2.131,2.131H7.406a.579.579,0,0,0,.579-.579V14.543a.973.973,0,0,1,.972-.972h1.862a.973.973,0,0,1,.972.972V19.2a.579.579,0,0,0,.579.579h3.156a2.133,2.133,0,0,0,2.131-2.131V11.71h.3A1.821,1.821,0,0,0,19.245,8.6Zm0,0" transform="translate(0 0.001)"/>
</svg>
