<svg xmlns="http://www.w3.org/2000/svg" width="13.993" height="20.608" viewBox="0 0 13.993 20.608">
  <path id="resume" d="M63.8,15.871v4.072a.587.587,0,0,1-1.011.47L59.163,16.34a.678.678,0,0,1,.419-1.135h3.627A.631.631,0,0,1,63.8,15.871ZM72.98,1.994V18.613A1.9,1.9,0,0,1,71.2,20.607h-6.31a.632.632,0,0,1-.592-.668c0-.612,0-1.862,0-4.491a.763.763,0,0,0-.715-.8c-2.342,0-3.456,0-4,0a.631.631,0,0,1-.595-.665V1.994A1.9,1.9,0,0,1,60.766,0H71.2A1.9,1.9,0,0,1,72.98,1.994ZM63.816,5.35l1.2,1.352a.548.548,0,0,0,.838,0l2.906-3.261a.724.724,0,0,0,0-.94.548.548,0,0,0-.838,0L65.44,5.292l-.786-.882a.548.548,0,0,0-.838,0A.724.724,0,0,0,63.816,5.35Zm6.092,10.77a.632.632,0,0,0-.592-.665H65.874a.669.669,0,0,0,0,1.329h3.442A.632.632,0,0,0,69.908,16.12Zm0-3.407a.632.632,0,0,0-.592-.665h-6.7a.669.669,0,0,0,0,1.329h6.7A.632.632,0,0,0,69.908,12.713Zm0-3.407a.632.632,0,0,0-.592-.665h-6.7a.669.669,0,0,0,0,1.329h6.7A.632.632,0,0,0,69.908,9.306Z" transform="translate(-58.988)"/>
</svg>
