<svg xmlns="http://www.w3.org/2000/svg" width="85.88" height="88.189" viewBox="0 0 85.88 88.189">
  <path id="setting" d="M91.093,53.759,82.987,47.42a29.5,29.5,0,0,0,0-6.658L91.1,34.42a3.976,3.976,0,0,0,.959-5.067L83.626,14.776a3.987,3.987,0,0,0-4.876-1.756L69.2,16.863a32.729,32.729,0,0,0-5.74-3.333L61.99,3.381A3.906,3.906,0,0,0,58.088,0h-16.9a3.9,3.9,0,0,0-3.88,3.351L35.835,13.53A33.94,33.94,0,0,0,30.1,16.866l-9.58-3.851a3.906,3.906,0,0,0-4.839,1.723l-8.44,14.6A3.947,3.947,0,0,0,8.2,34.431l8.106,6.339a29.217,29.217,0,0,0,0,6.658L8.2,53.766a3.972,3.972,0,0,0-.963,5.067l8.429,14.581a3.983,3.983,0,0,0,4.876,1.756l9.554-3.844a32.878,32.878,0,0,0,5.743,3.337L37.3,84.8a3.9,3.9,0,0,0,3.88,3.384h16.9a3.9,3.9,0,0,0,3.891-3.351l1.47-10.178a34.007,34.007,0,0,0,5.732-3.337l9.591,3.855a3.91,3.91,0,0,0,4.839-1.723l8.466-14.661A3.965,3.965,0,0,0,91.093,53.759ZM49.637,62.467A18.373,18.373,0,1,1,68.009,44.094,18.373,18.373,0,0,1,49.637,62.467Z" transform="translate(-6.703 0)" fill="#455a64"/>
</svg>
