<svg xmlns="http://www.w3.org/2000/svg" width="17.464" height="20.932" viewBox="0 0 17.464 20.932">
  <g id="user" transform="translate(0 0)">
    <path id="Path_146" data-name="Path 146" d="M92.073,10.083a4.878,4.878,0,0,0,3.565-1.477,4.878,4.878,0,0,0,1.477-3.565,4.879,4.879,0,0,0-1.477-3.565,5.04,5.04,0,0,0-7.129,0,4.878,4.878,0,0,0-1.477,3.564,4.878,4.878,0,0,0,1.477,3.565A4.879,4.879,0,0,0,92.073,10.083Zm0,0" transform="translate(-83.474 0)"/>
    <path id="Path_147" data-name="Path 147" d="M17.421,253.3a12.453,12.453,0,0,0-.17-1.323,10.422,10.422,0,0,0-.325-1.33,6.566,6.566,0,0,0-.547-1.24,4.681,4.681,0,0,0-.824-1.074,3.634,3.634,0,0,0-1.184-.744,4.093,4.093,0,0,0-1.512-.274,1.534,1.534,0,0,0-.819.348c-.246.16-.533.345-.854.55a4.89,4.89,0,0,1-1.1.487,4.289,4.289,0,0,1-2.7,0,4.878,4.878,0,0,1-1.1-.486c-.318-.2-.605-.388-.854-.551a1.533,1.533,0,0,0-.819-.348,4.087,4.087,0,0,0-1.512.274,3.632,3.632,0,0,0-1.184.744,4.682,4.682,0,0,0-.824,1.074,6.579,6.579,0,0,0-.547,1.24,10.447,10.447,0,0,0-.325,1.33,12.408,12.408,0,0,0-.17,1.323c-.028.4-.042.816-.042,1.236a3.476,3.476,0,0,0,1.032,2.63,3.716,3.716,0,0,0,2.66.97H13.771a3.715,3.715,0,0,0,2.66-.97,3.474,3.474,0,0,0,1.032-2.63c0-.422-.014-.838-.042-1.236Zm0,0" transform="translate(0 -237.205)"/>
  </g>
</svg>
