<svg xmlns="http://www.w3.org/2000/svg" width="13.786" height="8.218" viewBox="0 0 13.786 8.218">
  <g id="eye" transform="translate(0 -98.725)">
    <path id="Path_245" data-name="Path 245" d="M6.893,98.725a8.6,8.6,0,0,0-6.785,3.782.546.546,0,0,0,0,.651,8.6,8.6,0,0,0,6.785,3.784,8.6,8.6,0,0,0,6.785-3.782.546.546,0,0,0,0-.651A8.6,8.6,0,0,0,6.893,98.725Zm.189,7a2.9,2.9,0,1,1,2.7-2.7A2.9,2.9,0,0,1,7.082,105.727Zm-.087-1.337a1.561,1.561,0,1,1,1.458-1.458A1.559,1.559,0,0,1,6.994,104.39Z" transform="translate(0)" fill="rgba(54,67,74,0.7)"/>
  </g>
</svg>
