<svg xmlns="http://www.w3.org/2000/svg" width="32.103" height="30.015" viewBox="0 0 32.103 30.015">
  <g id="job_seeker" transform="translate(0 0)">
    <path id="Path_177" data-name="Path 177" d="M114.949,382.345h-1.336l-.25-.312A7.477,7.477,0,0,1,112.207,380h-8.587a7.477,7.477,0,0,1-1.156,2.033l-.25.312h-1.336a.879.879,0,1,0,0,1.759h14.07a.879.879,0,1,0,0-1.759Z" transform="translate(-94.138 -357.723)" fill="#24b273"/>
    <path id="Path_178" data-name="Path 178" d="M336.321,70.439a.47.47,0,0,0-.47-.47h-.824v.941l.824,0A.47.47,0,0,0,336.321,70.439Z" transform="translate(-315.387 -65.867)" fill="#24b273"/>
    <path id="Path_179" data-name="Path 179" d="M93.549,137.269h0Z" transform="translate(-88.064 -129.22)" fill="#24b273"/>
    <path id="Path_180" data-name="Path 180" d="M336.849,116.716a.7.7,0,0,0-.7-.7h-1.121v1.4l1.121,0A.7.7,0,0,0,336.849,116.716Z" transform="translate(-315.388 -109.216)" fill="#24b273"/>
    <circle id="Ellipse_12" data-name="Ellipse 12" cx="5.276" cy="5.276" r="5.276" transform="translate(17.182 18.341) rotate(-45)" fill="#24b273"/>
    <path id="Path_181" data-name="Path 181" d="M436.569,415.3l-1.279-3.514a7.089,7.089,0,0,1-3.305,1.2l1.279,3.514a1.759,1.759,0,0,0,3.305-1.2Z" transform="translate(-406.66 -387.65)" fill="#24b273"/>
    <path id="Path_182" data-name="Path 182" d="M17.741,290H0v.879a2.641,2.641,0,0,0,2.638,2.638H17.959A7,7,0,0,1,17.741,290Z" transform="translate(0 -272.999)" fill="#24b273"/>
    <path id="Path_183" data-name="Path 183" d="M22.241,11.73a7.011,7.011,0,0,1,5.312.2v-9.3A2.641,2.641,0,0,0,24.915,0H2.638A2.641,2.641,0,0,0,0,2.638v12.6H18.332A7.011,7.011,0,0,1,22.241,11.73ZM7.806,7.908a2.067,2.067,0,0,1-1.056,1.81,1.909,1.909,0,0,1-.937.249,2.331,2.331,0,0,1-1.572-.676l0,0h0A.879.879,0,0,1,5.483,8.046l-.007-.007s.256.234.421.142a.312.312,0,0,0,.15-.273V3.223a.879.879,0,0,1,1.759,0V7.908Zm5.123,2.056A3.811,3.811,0,1,1,16.74,6.154a3.815,3.815,0,0,1-3.811,3.811Zm5.832,0a.879.879,0,0,1-.879-.879V3.223a.879.879,0,0,1,.879-.879h1.7A2.227,2.227,0,0,1,22.4,5.671a2.456,2.456,0,0,1-1.639,4.286c-.425,0-1.981.007-2,.007h0Z" fill="#24b273"/>
  </g>
</svg>
