<svg xmlns="http://www.w3.org/2000/svg" width="10.065" height="14.637" viewBox="0 0 10.065 14.637">
  <g id="location" transform="translate(-79.968 0)">
    <path id="Path_155" data-name="Path 155" d="M89.334,2.506A4.967,4.967,0,0,0,85.113,0c-.075,0-.15,0-.225,0a4.967,4.967,0,0,0-4.221,2.505A5.1,5.1,0,0,0,80.6,7.541l3.63,6.644,0,.009a.882.882,0,0,0,1.531,0l0-.009L89.4,7.541a5.1,5.1,0,0,0-.067-5.035ZM85,6.632a2.058,2.058,0,1,1,2.058-2.058A2.061,2.061,0,0,1,85,6.632Z" transform="translate(0)" fill="#fff"/>
  </g>
</svg>
