<svg xmlns="http://www.w3.org/2000/svg" width="12.581" height="12.581" viewBox="0 0 12.581 12.581">
  <g id="price" transform="translate(0)">
    <g id="Group_37" data-name="Group 37" transform="translate(0)">
      <path id="Path_156" data-name="Path 156" d="M10.739,1.842a6.291,6.291,0,0,0-8.9,8.9,6.291,6.291,0,0,0,8.9-8.9ZM6.685,9.028H6.659v.816a.369.369,0,0,1-.737,0V9.028H5.106a.369.369,0,0,1,0-.737H6.685a.816.816,0,0,0,0-1.632H5.9a1.553,1.553,0,0,1,0-3.106h.026V2.737a.369.369,0,0,1,.737,0v.816h.816a.369.369,0,0,1,0,.737H5.9a.816.816,0,0,0,0,1.632h.79a1.553,1.553,0,0,1,0,3.106Z" transform="translate(0 0)" fill="#fff"/>
    </g>
  </g>
</svg>
