<svg xmlns="http://www.w3.org/2000/svg" width="14" height="11.667" viewBox="0 0 14 11.667">
  <g id="work" transform="translate(0 -2)">
    <path id="Path_242" data-name="Path 242" d="M11.5,3.753v-.5H9.167v.5H8v-.5A1.215,1.215,0,0,1,9.167,2H11.5a1.215,1.215,0,0,1,1.167,1.255v.5Z" transform="translate(-3.333)" fill="rgba(54,67,74,0.7)"/>
    <path id="Path_243" data-name="Path 243" d="M7.414,13.813a1.2,1.2,0,0,1-.414.07,1.278,1.278,0,0,1-.449-.082L0,11.62v4.451a1.6,1.6,0,0,0,1.6,1.6H12.4a1.6,1.6,0,0,0,1.6-1.6V11.62Z" transform="translate(0 -4.008)" fill="rgba(54,67,74,0.7)"/>
    <path id="Path_244" data-name="Path 244" d="M14,6.6V7.94L7.14,10.227a.432.432,0,0,1-.28,0L0,7.94V6.6A1.6,1.6,0,0,1,1.6,5H12.4A1.6,1.6,0,0,1,14,6.6Z" transform="translate(0 -1.25)" fill="rgba(54,67,74,0.7)"/>
  </g>
</svg>
